<svg version="1.1" xmlns="http://www.w3.org/2000/svg" viewBox="0 0 420 420" width="420" height="420" filter="invert(93%) hue-rotate(180deg)"><!-- svg-source:excalidraw --><metadata></metadata><defs><style class="style-fonts">
      </style></defs><g stroke-linecap="round" transform="translate(10 10) rotate(0 200 200)"><path d="M201 0 L400 201 L201 400 L0 201" stroke="none" stroke-width="0" fill="#a5d8ff" fill-rule="evenodd"></path><path d="M201 0 C279.15 78.93, 357.3 157.87, 400 201 M201 0 C267.21 66.87, 333.42 133.75, 400 201 M400 201 C325.3 275.7, 250.6 350.4, 201 400 M400 201 C329.77 271.23, 259.54 341.46, 201 400 M201 400 C132.74 332.42, 64.48 264.84, 0 201 M201 400 C123.7 323.46, 46.39 246.93, 0 201 M0 201 C59.7 141.3, 119.39 81.61, 201 0 M0 201 C75.71 125.29, 151.41 49.59, 201 0" stroke="#0ea5e9" stroke-width="2" fill="none"></path></g><g stroke-linecap="round" transform="translate(110 110) rotate(270 100 100)"><path d="M0 0 C0 0, 0 0, 0 0 M0 0 C0 0, 0 0, 0 0 M0.13 12.04 C4.08 7.5, 8.03 2.96, 10.63 -0.03 M0.13 12.04 C3.47 8.2, 6.82 4.35, 10.63 -0.03 M0.27 24.08 C5.77 17.76, 11.26 11.43, 21.26 -0.07 M0.27 24.08 C5.63 17.91, 10.99 11.74, 21.26 -0.07 M-0.26 36.88 C11.89 22.91, 24.03 8.94, 31.89 -0.1 M-0.26 36.88 C7.82 27.59, 15.9 18.29, 31.89 -0.1 M-0.12 48.92 C13.92 32.77, 27.96 16.62, 42.52 -0.14 M-0.12 48.92 C13.85 32.85, 27.82 16.78, 42.52 -0.14 M0.01 60.96 C15.23 43.45, 30.45 25.94, 53.15 -0.17 M0.01 60.96 C20.76 37.09, 41.52 13.21, 53.15 -0.17 M0.14 73 C19.97 50.19, 39.8 27.38, 63.78 -0.21 M0.14 73 C16.2 54.53, 32.26 36.05, 63.78 -0.21 M0.28 85.04 C28.99 52, 57.71 18.97, 74.41 -0.24 M0.28 85.04 C26.48 54.9, 52.67 24.76, 74.41 -0.24 M-0.25 97.84 C29.18 63.98, 58.62 30.12, 85.04 -0.28 M-0.25 97.84 C32.49 60.18, 65.23 22.51, 85.04 -0.28 M-0.11 109.88 C27.91 77.64, 55.93 45.4, 95.67 -0.31 M-0.11 109.88 C19.59 87.21, 39.29 64.54, 95.67 -0.31 M0.02 121.92 C36.42 80.04, 72.82 38.17, 106.3 -0.34 M0.02 121.92 C29.2 88.35, 58.39 54.77, 106.3 -0.34 M0.15 133.96 C28.08 101.83, 56 69.71, 116.27 0.38 M0.15 133.96 C42.15 85.65, 84.15 37.33, 116.27 0.38 M0.29 146 C37.4 103.3, 74.51 60.61, 126.91 0.34 M0.29 146 C47.83 91.3, 95.38 36.61, 126.91 0.34 M-0.24 158.8 C54.35 96, 108.93 33.21, 137.54 0.31 M-0.24 158.8 C38.88 113.79, 78 68.79, 137.54 0.31 M-0.1 170.84 C53.68 108.96, 107.47 47.09, 148.17 0.27 M-0.1 170.84 C49.71 113.53, 99.53 56.22, 148.17 0.27 M0.03 182.88 C55.8 118.71, 111.58 54.55, 158.8 0.24 M0.03 182.88 C60.94 112.8, 121.86 42.73, 158.8 0.24 M0.16 194.92 C66.82 118.23, 133.49 41.55, 169.43 0.2 M0.16 194.92 C51.6 135.75, 103.04 76.57, 169.43 0.2 M6.2 200.17 C45.15 155.36, 84.1 110.56, 180.06 0.17 M6.2 200.17 C61.9 136.09, 117.59 72.02, 180.06 0.17 M16.17 200.89 C52.01 159.67, 87.84 118.45, 190.69 0.13 M16.17 200.89 C55.52 155.63, 94.86 110.37, 190.69 0.13 M26.8 200.85 C89 129.3, 151.2 57.76, 200 1.61 M26.8 200.85 C79.12 140.67, 131.43 80.5, 200 1.61 M37.43 200.82 C85.07 146.02, 132.7 91.23, 200.14 13.65 M37.43 200.82 C93.63 136.17, 149.82 71.53, 200.14 13.65 M48.06 200.78 C82.74 160.89, 117.42 121, 200.27 25.69 M48.06 200.78 C106.68 133.36, 165.29 65.93, 200.27 25.69 M58.69 200.75 C104.99 147.49, 151.29 94.23, 199.75 38.49 M58.69 200.75 C101.97 150.96, 145.25 101.18, 199.75 38.49 M69.32 200.71 C112.16 151.43, 155 102.15, 199.88 50.53 M69.32 200.71 C118.2 144.49, 167.08 88.26, 199.88 50.53 M79.95 200.68 C111.21 164.72, 142.47 128.76, 200.01 62.57 M79.95 200.68 C110.13 165.96, 140.31 131.25, 200.01 62.57 M90.58 200.65 C121.74 164.8, 152.9 128.96, 200.15 74.61 M90.58 200.65 C126 159.91, 161.41 119.17, 200.15 74.61 M101.21 200.61 C122.46 176.17, 143.7 151.74, 200.28 86.65 M101.21 200.61 C132.82 164.26, 164.42 127.91, 200.28 86.65 M111.84 200.58 C142.41 165.42, 172.97 130.26, 199.76 99.45 M111.84 200.58 C132.36 176.98, 152.87 153.39, 199.76 99.45 M122.47 200.54 C152.84 165.61, 183.2 130.69, 199.89 111.49 M122.47 200.54 C149.43 169.53, 176.38 138.53, 199.89 111.49 M133.1 200.51 C152.87 177.76, 172.64 155.02, 200.02 123.53 M133.1 200.51 C156.85 173.19, 180.6 145.87, 200.02 123.53 M143.73 200.47 C164.72 176.33, 185.71 152.18, 200.16 135.57 M143.73 200.47 C164.94 176.08, 186.14 151.69, 200.16 135.57 M154.37 200.44 C169.61 182.9, 184.85 165.37, 200.29 147.61 M154.37 200.44 C167.52 185.3, 180.68 170.17, 200.29 147.61 M165 200.4 C172.25 192.05, 179.51 183.7, 199.77 160.4 M165 200.4 C176.72 186.92, 188.44 173.43, 199.77 160.4 M175.63 200.37 C185.04 189.54, 194.45 178.71, 199.9 172.44 M175.63 200.37 C182.3 192.69, 188.98 185, 199.9 172.44 M186.26 200.33 C190.86 195.04, 195.46 189.75, 200.03 184.49 M186.26 200.33 C191.3 194.53, 196.34 188.73, 200.03 184.49 M196.89 200.3 C197.61 199.47, 198.33 198.64, 200.17 196.53 M196.89 200.3 C197.92 199.11, 198.96 197.91, 200.17 196.53 M-0.16 199.86 C-0.16 199.86, -0.16 199.86, -0.16 199.86 M-0.16 199.86 C-0.16 199.86, -0.16 199.86, -0.16 199.86 M11.88 199.73 C8.1 196.44, 4.32 193.16, -0.19 189.23 M11.88 199.73 C8.81 197.06, 5.74 194.39, -0.19 189.23 M24.68 200.25 C18.25 194.66, 11.82 189.07, -0.23 178.6 M24.68 200.25 C15.86 192.59, 7.05 184.93, -0.23 178.6 M36.72 200.12 C22.79 188.01, 8.86 175.9, -0.26 167.97 M36.72 200.12 C26.33 191.09, 15.94 182.06, -0.26 167.97 M48.76 199.98 C33.89 187.06, 19.03 174.14, -0.3 157.34 M48.76 199.98 C35.4 188.37, 22.04 176.76, -0.3 157.34 M60.8 199.85 C45.63 186.67, 30.46 173.48, -0.33 146.71 M60.8 199.85 C46.3 187.25, 31.8 174.65, -0.33 146.71 M72.84 199.72 C48.84 178.86, 24.85 158, -0.37 136.08 M72.84 199.72 C45.18 175.67, 17.52 151.63, -0.37 136.08 M85.64 200.24 C52.31 171.27, 18.99 142.3, 0.35 126.11 M85.64 200.24 C59 177.09, 32.36 153.93, 0.35 126.11 M97.68 200.11 C63.92 170.76, 30.16 141.41, 0.32 115.48 M97.68 200.11 C68.84 175.04, 40 149.97, 0.32 115.48 M109.72 199.97 C66.52 162.43, 23.33 124.88, 0.28 104.85 M109.72 199.97 C72.06 167.24, 34.4 134.51, 0.28 104.85 M121.76 199.84 C79.13 162.79, 36.51 125.74, 0.25 94.22 M121.76 199.84 C91.15 173.23, 60.54 146.63, 0.25 94.22 M133.8 199.71 C96.85 167.59, 59.9 135.47, 0.22 83.59 M133.8 199.71 C91.25 162.72, 48.7 125.73, 0.22 83.59 M146.59 200.23 C116.25 173.85, 85.9 147.47, 0.18 72.96 M146.59 200.23 C92.75 153.43, 38.91 106.62, 0.18 72.96 M158.64 200.1 C98.47 147.8, 38.31 95.5, 0.15 62.33 M158.64 200.1 C115.82 162.88, 73 125.66, 0.15 62.33 M170.68 199.97 C109.25 146.56, 47.82 93.16, 0.11 51.7 M170.68 199.97 C108.42 145.85, 46.17 91.73, 0.11 51.7 M182.72 199.83 C132.77 156.42, 82.83 113, 0.08 41.07 M182.72 199.83 C112.95 139.18, 43.18 78.54, 0.08 41.07 M194.76 199.7 C130.5 143.84, 66.24 87.98, 0.04 30.44 M194.76 199.7 C143.48 155.13, 92.21 110.55, 0.04 30.44 M200.76 194.32 C149.67 149.9, 98.57 105.49, 0.01 19.81 M200.76 194.32 C143.46 144.5, 86.15 94.69, 0.01 19.81 M200.73 183.69 C157.78 146.36, 114.84 109.02, -0.03 9.18 M200.73 183.69 C144.33 134.66, 87.94 85.64, -0.03 9.18 M200.69 173.06 C151.75 130.52, 102.81 87.97, 1.45 -0.14 M200.69 173.06 C128.89 110.64, 57.09 48.22, 1.45 -0.14 M200.66 162.43 C128.5 99.7, 56.34 36.97, 13.49 -0.28 M200.66 162.43 C138.08 108.03, 75.51 53.63, 13.49 -0.28 M200.62 151.8 C148.98 106.9, 97.33 62.01, 26.29 0.25 M200.62 151.8 C159.64 116.17, 118.66 80.54, 26.29 0.25 M200.59 141.17 C136.48 85.44, 72.38 29.71, 38.33 0.11 M200.59 141.17 C145.65 93.41, 90.71 45.65, 38.33 0.11 M200.55 130.54 C158.15 93.68, 115.75 56.81, 50.37 -0.02 M200.55 130.54 C157.56 93.16, 114.56 55.78, 50.37 -0.02 M200.52 119.91 C163.32 87.57, 126.13 55.24, 62.41 -0.15 M200.52 119.91 C158.1 83.04, 115.69 46.16, 62.41 -0.15 M200.49 109.28 C174.46 86.65, 148.43 64.03, 74.45 -0.29 M200.49 109.28 C157.74 72.12, 114.99 34.95, 74.45 -0.29 M200.45 98.65 C176.49 77.82, 152.53 56.99, 87.24 0.24 M200.45 98.65 C171.94 73.87, 143.44 49.08, 87.24 0.24 M200.42 88.02 C170.29 61.83, 140.17 35.64, 99.29 0.1 M200.42 88.02 C163.26 55.72, 126.11 23.43, 99.29 0.1 M200.38 77.39 C173.5 54.01, 146.61 30.64, 111.33 -0.03 M200.38 77.39 C175.18 55.47, 149.97 33.56, 111.33 -0.03 M200.35 66.76 C176.32 45.87, 152.3 24.99, 123.37 -0.16 M200.35 66.76 C170.1 40.47, 139.86 14.18, 123.37 -0.16 M200.31 56.13 C174.57 33.75, 148.83 11.37, 135.41 -0.29 M200.31 56.13 C180.22 38.66, 160.13 21.2, 135.41 -0.29 M200.28 45.5 C188.23 35.02, 176.17 24.54, 148.2 0.23 M200.28 45.5 C180.17 28.01, 160.06 10.53, 148.2 0.23 M200.24 34.87 C191.09 26.91, 181.94 18.96, 160.24 0.09 M200.24 34.87 C186.7 23.1, 173.17 11.33, 160.24 0.09 M200.21 24.24 C190.02 15.38, 179.84 6.53, 172.29 -0.04 M200.21 24.24 C189.98 15.35, 179.75 6.45, 172.29 -0.04 M200.17 13.61 C195.29 9.36, 190.41 5.12, 184.33 -0.17 M200.17 13.61 C194.22 8.43, 188.27 3.26, 184.33 -0.17 M200.14 2.98 C199.21 2.16, 198.27 1.35, 196.37 -0.3 M200.14 2.98 C199.01 1.99, 197.87 1, 196.37 -0.3" stroke="#40c057" stroke-width="1" fill="none"></path><path d="M0 0 C67.41 0, 134.81 0, 200 0 M0 0 C58.14 0, 116.28 0, 200 0 M200 0 C200 76.89, 200 153.79, 200 200 M200 0 C200 48.77, 200 97.55, 200 200 M200 200 C157.88 200, 115.77 200, 0 200 M200 200 C151 200, 102 200, 0 200 M0 200 C0 155.54, 0 111.08, 0 0 M0 200 C0 135.47, 0 70.94, 0 0" stroke="#16a34a" stroke-width="2" fill="none"></path></g></svg>